# xmcd CD database file
#
# Track frame offsets:
#	150
#	27357
#	54562
#
# Disc length: 1089 seconds
#
# Revision: 1
# Processed by: cddbd v1.5.2PL0 Copyright (c) Steve Scherf et al.
# Submitted via: CDex 1.70beta2
#
DISCID=1f043f03
DTITLE=久保田利伸 - Cymbals
DYEAR=1997
DGENRE=JPop
TTITLE0=Cymbals
TTITLE1=Cymbals　weeping　harp　version
TTITLE2=Cymbals　Orignal　karaoke
EXTD=YEAR: 1997
EXTT0=
EXTT1=
EXTT2=
PLAYORDER=
